<svg width="40" height="41" viewBox="0 0 40 41" fill="none" xmlns="http://www.w3.org/2000/svg">
<g clip-path="url(#clip0_2_914)">
<path d="M19.0927 39.1598H4.47919C2.65689 39.1598 1.17969 37.6826 1.17969 35.8603V15.0725C1.17969 13.2502 2.65696 11.7729 4.47919 11.7729H19.0928C20.843 11.7729 22.275 13.1356 22.3855 14.8579" stroke="black" stroke-width="2" stroke-miterlimit="10" stroke-linecap="round" stroke-linejoin="round"/>
<path d="M7.6875 11.7734V1.50732H15.8822V11.7734" stroke="black" stroke-width="2" stroke-miterlimit="10" stroke-linecap="round" stroke-linejoin="round"/>
<path d="M35.3021 39.1596H16.7897C14.8456 39.1596 13.2695 37.5835 13.2695 35.6394V23.1115C13.2695 21.1673 14.8455 19.5913 16.7897 19.5913H35.3021C37.2462 19.5913 38.8223 21.1673 38.8223 23.1115V35.6394C38.8223 37.5835 37.2462 39.1596 35.3021 39.1596Z" stroke="black" stroke-width="2" stroke-miterlimit="10" stroke-linecap="round" stroke-linejoin="round"/>
<path d="M22.4023 14.8569H29.6862V19.5916" stroke="black" stroke-width="2" stroke-miterlimit="10" stroke-linecap="round" stroke-linejoin="round"/>
<path d="M13.2695 31.7075H38.8223" stroke="black" stroke-width="2" stroke-miterlimit="10" stroke-linecap="round" stroke-linejoin="round"/>
<path d="M22.4023 14.8569V19.5916" stroke="black" stroke-width="2" stroke-miterlimit="10" stroke-linecap="round" stroke-linejoin="round"/>
</g>
<defs>
<clipPath id="clip0_2_914">
<rect width="40" height="40" fill="white" transform="translate(0 0.333496)"/>
</clipPath>
</defs>
</svg>
