<svg width="40" height="41" viewBox="0 0 40 41" fill="none" xmlns="http://www.w3.org/2000/svg">
<g clip-path="url(#clip0_2_899)">
<path d="M14.1186 28.5687C15.4181 28.5687 16.4715 27.5152 16.4715 26.2157C16.4715 24.9162 15.4181 23.8628 14.1186 23.8628C12.8191 23.8628 11.7656 24.9162 11.7656 26.2157C11.7656 27.5152 12.8191 28.5687 14.1186 28.5687Z" stroke="black" stroke-width="2" stroke-miterlimit="10"/>
<path d="M14.1174 33.2753C18.0159 33.2753 21.1762 30.115 21.1762 26.2165C21.1762 22.3181 18.0159 19.1577 14.1174 19.1577C10.2189 19.1577 7.05859 22.3181 7.05859 26.2165C7.05859 30.115 10.2189 33.2753 14.1174 33.2753Z" stroke="black" stroke-width="2" stroke-miterlimit="10"/>
<path d="M1.17578 26.2165C1.17578 19.0693 6.96973 13.2753 14.1169 13.2753C18.66 13.2753 22.6562 15.6164 24.9652 19.1577C25.6669 20.234 26.2128 21.421 26.5709 22.6871L38.3345 10.9233" stroke="black" stroke-width="2" stroke-miterlimit="10"/>
<path d="M35.0325 5.30072C29.9786 0.246766 21.7847 0.246766 16.7309 5.30072L4.96619 17.0654C-0.0876868 22.1192 -0.0876868 30.3131 4.96619 35.3669C10.0201 40.4208 18.2139 40.4208 23.2678 35.3669L35.0325 23.6022C40.0864 18.5485 40.0864 10.3545 35.0325 5.30072Z" stroke="black" stroke-width="2" stroke-miterlimit="10"/>
</g>
<defs>
<clipPath id="clip0_2_899">
<rect width="40" height="40" fill="white" transform="translate(0 0.333496)"/>
</clipPath>
</defs>
</svg>
