<svg width="516" height="516" viewBox="0 0 516 516" fill="none" xmlns="http://www.w3.org/2000/svg">
<g clip-path="url(#clip0_2_2015)">
<path d="M321.736 398.855L258.058 435.242L194.38 398.855C132.87 363.706 94.9099 298.293 94.9099 227.448V54.653L258.059 15.713L421.208 54.653V227.449C421.207 298.293 383.246 363.706 321.736 398.855Z" stroke="black" stroke-width="30" stroke-miterlimit="10"/>
<path d="M194.944 399.418L124.82 489.033L90.734 430.561L26.272 409.934L111.841 305.921" stroke="black" stroke-width="30" stroke-miterlimit="10"/>
<path d="M320.836 399.755L390.622 489.033L424.707 430.561L489.17 409.934L404.643 306.963" stroke="black" stroke-width="30" stroke-miterlimit="10"/>
<path d="M258.058 125.091L289.123 167.623L339.172 184.024L308.322 226.711L308.189 279.379L258.058 263.229L207.927 279.379L207.795 226.711L176.945 184.024L226.994 167.623L258.058 125.091Z" stroke="black" stroke-width="30" stroke-miterlimit="10"/>
</g>
<defs>
<clipPath id="clip0_2_2015">
<rect width="515.418" height="515.418" fill="white" transform="translate(0 0.291016)"/>
</clipPath>
</defs>
</svg>
