<svg width="15" height="15" viewBox="0 0 15 15" fill="none" xmlns="http://www.w3.org/2000/svg">
<path fill-rule="evenodd" clip-rule="evenodd" d="M7.83549 8.67293C8.47982 8.67293 9.00216 8.1506 9.00216 7.50627C9.00216 6.86193 8.47982 6.3396 7.83549 6.3396C7.19116 6.3396 6.66882 6.86193 6.66882 7.50627C6.66882 8.1506 7.19116 8.67293 7.83549 8.67293Z" stroke="#309689" stroke-width="1.16667" stroke-linecap="round" stroke-linejoin="round"/>
<path fill-rule="evenodd" clip-rule="evenodd" d="M12.5021 8.67293C13.1464 8.67293 13.6688 8.1506 13.6688 7.50627C13.6688 6.86193 13.1464 6.3396 12.5021 6.3396C11.8578 6.3396 11.3354 6.86193 11.3354 7.50627C11.3354 8.1506 11.8578 8.67293 12.5021 8.67293Z" stroke="#309689" stroke-width="1.16667" stroke-linecap="round" stroke-linejoin="round"/>
<path fill-rule="evenodd" clip-rule="evenodd" d="M3.16874 8.67293C3.81307 8.67293 4.33541 8.1506 4.33541 7.50627C4.33541 6.86193 3.81307 6.3396 3.16874 6.3396C2.52441 6.3396 2.00208 6.86193 2.00208 7.50627C2.00208 8.1506 2.52441 8.67293 3.16874 8.67293Z" stroke="#309689" stroke-width="1.16667" stroke-linecap="round" stroke-linejoin="round"/>
</svg>
