<svg width="12" height="15" viewBox="0 0 12 15" fill="none" xmlns="http://www.w3.org/2000/svg">
<path d="M3.41404 6.54247H4.38912C5.3492 6.54247 6.05613 6.383 6.51179 6.06219C6.97121 5.74326 7.20185 5.24048 7.20185 4.55383C7.20185 3.87845 6.96558 3.39818 6.49679 3.11301C6.03175 2.8241 5.31169 2.67776 4.33661 2.67776H3.41404V6.54247ZM3.41404 9.01138V14.497H0.383789V0.193848H4.54663C6.49117 0.193848 7.92941 0.550301 8.85949 1.25946C9.79331 1.96486 10.2621 3.03797 10.2621 4.47879C10.2621 5.31927 10.0296 6.06782 9.56454 6.72257C9.10326 7.3792 8.44883 7.89324 7.59938 8.26845C9.74831 11.4803 11.1509 13.5571 11.8072 14.497H8.43945L5.02667 9.01138H3.41404Z" fill="#990505"/>
</svg>
