<svg width="12" height="15" viewBox="0 0 12 15" fill="none" xmlns="http://www.w3.org/2000/svg">
<path d="M6.93407 2.71529C5.79397 2.71529 4.91078 3.14678 4.28635 4.00602C3.66005 4.86151 3.34877 6.05469 3.34877 7.58556C3.34877 10.7786 4.54325 12.3733 6.93407 12.3733C7.93915 12.3733 9.15613 12.1219 10.5869 11.6154V14.1593C9.41115 14.6508 8.10041 14.8947 6.65654 14.8947C4.57512 14.8947 2.98312 14.2644 1.87865 13.0037C0.777936 11.7429 0.228516 9.93253 0.228516 7.57055C0.228516 6.08096 0.498538 4.77709 1.03858 3.66082C1.58238 2.54081 2.36057 1.68345 3.37127 1.08686C4.38573 0.492143 5.57271 0.193848 6.93407 0.193848C8.32356 0.193848 9.71867 0.529664 11.1194 1.19942L10.1443 3.66082C9.60804 3.41131 9.07174 3.19181 8.5317 3.00045C7.99165 2.81097 7.45911 2.71529 6.93407 2.71529Z" fill="#990505"/>
</svg>
