<svg width="1182" height="256" viewBox="0 0 1182 256" fill="none" xmlns="http://www.w3.org/2000/svg">
<path d="M2.82715 235.543C54.5906 227.526 97.1566 178.637 158.92 170.42C191.839 166.04 218.211 174.564 247.635 187.81C277.058 201.055 271.298 206.774 337.472 216.986C392.081 225.412 406.365 134.561 459.876 138.052C513.387 141.542 538.136 32.3117 594.632 41.4298C651.128 50.548 662.416 26.9734 715.522 71.6523C768.629 116.331 817.693 12.1876 884.358 3.06944C951.024 -6.04871 968.387 90.7297 1000.02 87.0825C1031.66 83.4352 1060.15 152.396 1087.27 162.426C1114.38 172.456 1122.07 136.021 1179.7 136.021" stroke="#309689" stroke-width="4" stroke-linecap="round" stroke-linejoin="round"/>
<path d="M158.92 170.42C97.1566 178.637 54.5906 227.526 2.82715 235.543V255.317H1179.7V136.021C1122.07 136.021 1114.38 172.456 1087.27 162.426C1060.15 152.396 1031.66 83.4352 1000.02 87.0825C968.387 90.7297 951.024 -6.04871 884.359 3.06944C817.693 12.1876 768.629 116.331 715.523 71.6523C662.416 26.9734 651.128 50.548 594.632 41.4299C538.136 32.3117 513.387 141.542 459.876 138.052C406.365 134.561 392.081 225.412 337.472 216.986C271.298 206.774 277.058 201.055 247.635 187.81C218.211 174.564 191.839 166.04 158.92 170.42Z" fill="url(#paint0_linear_18_1143)"/>
<defs>
<linearGradient id="paint0_linear_18_1143" x1="591.263" y1="2.46301" x2="591.263" y2="361.085" gradientUnits="userSpaceOnUse">
<stop stop-color="#7459D9" stop-opacity="0.1"/>
<stop offset="0.998978" stop-color="white" stop-opacity="0"/>
</linearGradient>
</defs>
</svg>
