<svg width="74" height="5" viewBox="0 0 74 5" fill="none" xmlns="http://www.w3.org/2000/svg">
<path d="M2.06881 4.07248L1.10873 0.950703H1.08623C1.11998 1.58669 1.13873 2.01256 1.13873 2.22643V4.07248H0.388672V0.0952148H1.53627L2.47384 3.13445H2.48884L3.48643 0.0952148H4.63402V4.07248H3.84646V2.18891C3.84646 2.10449 3.84646 2.00505 3.84646 1.88874C3.85021 1.76867 3.86521 1.45912 3.89146 0.958207H3.86146L2.84137 4.07248H2.06881Z" fill="#082A2C"/>
<path d="M10.0804 2.07632C10.0804 2.7367 9.91722 3.24511 9.59282 3.59969C9.26654 3.95051 8.79963 4.12499 8.1902 4.12499C7.58453 4.12499 7.11762 3.95051 6.78759 3.59969C6.46131 3.24511 6.30005 2.7367 6.30005 2.07632C6.30005 1.41219 6.46131 0.905653 6.78759 0.560456C7.11762 0.211507 7.5864 0.0351562 8.1977 0.0351562C8.80713 0.0351562 9.27217 0.213383 9.59282 0.56796C9.91722 0.918785 10.0804 1.42157 10.0804 2.07632ZM7.18512 2.07632C7.18512 2.52283 7.26763 2.85677 7.43264 3.08189C7.60141 3.30702 7.85455 3.41959 8.1902 3.41959C8.86526 3.41959 9.20279 2.97308 9.20279 2.07632C9.20279 1.18143 8.86713 0.733054 8.1977 0.733054C7.86205 0.733054 7.60891 0.84937 7.44014 1.07825C7.2695 1.30338 7.18512 1.63732 7.18512 2.07632Z" fill="#082A2C"/>
<path d="M15.2802 4.07248H14.2076L12.4749 1.06327H12.4524C12.4862 1.59419 12.5049 1.97504 12.5049 2.20392V4.07248H11.7549V0.0952148H12.8125L14.5376 3.07441H14.5601C14.5301 2.56037 14.5151 2.19454 14.5151 1.97879V0.0952148H15.2802V4.07248Z" fill="#082A2C"/>
<path d="M17.1245 4.07248V0.0952148H17.9646V4.07248H17.1245Z" fill="#082A2C"/>
<path d="M21.3455 4.07248H20.5054V0.800617H19.4253V0.0952148H22.4255V0.800617H21.3455V4.07248Z" fill="#082A2C"/>
<path d="M27.4854 2.07632C27.4854 2.7367 27.3223 3.24511 26.9978 3.59969C26.6716 3.95051 26.2047 4.12499 25.5952 4.12499C24.9896 4.12499 24.5226 3.95051 24.1926 3.59969C23.8663 3.24511 23.7051 2.7367 23.7051 2.07632C23.7051 1.41219 23.8663 0.905653 24.1926 0.560456C24.5226 0.211507 24.9914 0.0351562 25.6027 0.0351562C26.2122 0.0351562 26.6772 0.213383 26.9978 0.56796C27.3223 0.918785 27.4854 1.42157 27.4854 2.07632ZM24.5902 2.07632C24.5902 2.52283 24.6727 2.85677 24.8377 3.08189C25.0064 3.30702 25.2596 3.41959 25.5952 3.41959C26.2703 3.41959 26.6078 2.97308 26.6078 2.07632C26.6078 1.18143 26.2722 0.733054 25.6027 0.733054C25.2671 0.733054 25.0139 0.84937 24.8452 1.07825C24.6745 1.30338 24.5902 1.63732 24.5902 2.07632Z" fill="#082A2C"/>
<path d="M29.9997 1.85872H30.2698C30.5342 1.85872 30.7292 1.81745 30.8548 1.73115C30.9842 1.6411 31.0498 1.50227 31.0498 1.31091C31.0498 1.12143 30.9842 0.986348 30.8548 0.905677C30.7235 0.826882 30.5248 0.785609 30.2548 0.785609H29.9997V1.85872ZM29.9997 2.54911V4.07248H29.1597V0.0952148H30.3148C30.8548 0.0952148 31.2542 0.196523 31.5149 0.395386C31.7736 0.590497 31.9049 0.888793 31.9049 1.2884C31.9049 1.52478 31.8393 1.7349 31.7099 1.91875C31.5786 2.09886 31.3967 2.23956 31.1623 2.33899C31.7624 3.23576 32.1524 3.81359 32.3324 4.07248H31.3949L30.4498 2.54911H29.9997Z" fill="#082A2C"/>
<path d="M33.6799 4.07248V0.0952148H34.52V4.07248H33.6799Z" fill="#082A2C"/>
<path d="M39.8964 4.07248H38.8238L37.0912 1.06327H37.0687C37.1024 1.59419 37.1212 1.97504 37.1212 2.20392V4.07248H36.3711V0.0952148H37.4287L39.1538 3.07441H39.1763C39.1463 2.56037 39.1313 2.19454 39.1313 1.97879V0.0952148H39.8964V4.07248Z" fill="#082A2C"/>
<path d="M43.2482 1.84351H44.8233V3.89968C44.5683 3.98598 44.3283 4.04226 44.1033 4.07228C43.8782 4.10605 43.6457 4.12481 43.4057 4.12481C42.8094 4.12481 42.3519 3.95033 42.0331 3.59951C41.7181 3.24493 41.5605 2.73652 41.5605 2.07614C41.5605 1.4364 41.7424 0.939242 42.1081 0.582789C42.4775 0.222583 42.9875 0.0424805 43.6382 0.0424805C44.0433 0.0424805 44.4352 0.123152 44.8158 0.282617L44.5383 0.958003C44.2476 0.813545 43.9457 0.740378 43.6307 0.740378C43.2651 0.740378 42.9725 0.864199 42.7531 1.10809C42.5375 1.35385 42.4306 1.68404 42.4306 2.09865C42.4306 2.53015 42.5169 2.86034 42.6931 3.08922C42.8675 3.31435 43.1244 3.42691 43.4657 3.42691C43.6401 3.42691 43.8182 3.41003 43.9982 3.37438V2.54141H43.2482V1.84351Z" fill="#082A2C"/>
<path d="M51.2513 2.96915C51.2513 3.32936 51.12 3.61264 50.8613 3.81713C50.6062 4.0235 50.2481 4.12481 49.7887 4.12481C49.363 4.12481 48.988 4.04601 48.6636 3.88467V3.10423C48.9336 3.2243 49.1605 3.31059 49.3461 3.35937C49.5299 3.4044 49.7005 3.42691 49.8562 3.42691C50.0399 3.42691 50.1806 3.39314 50.2762 3.32185C50.3756 3.25244 50.4262 3.14738 50.4262 3.00667C50.4262 2.93163 50.4037 2.86409 50.3587 2.80406C50.3175 2.74027 50.2556 2.68023 50.1712 2.62395C50.0849 2.56955 49.9124 2.4795 49.6537 2.3538C49.4136 2.24499 49.2299 2.13617 49.1061 2.03111C48.9861 1.92605 48.8886 1.80411 48.8136 1.6634C48.7423 1.52458 48.7086 1.35948 48.7086 1.16812C48.7086 0.819173 48.8286 0.543391 49.0686 0.342652C49.3086 0.143788 49.6387 0.0424805 50.0587 0.0424805C50.2631 0.0424805 50.4581 0.0687452 50.6437 0.117523C50.8331 0.162549 51.03 0.230087 51.2363 0.320139L50.9663 0.973011C50.7506 0.888588 50.5725 0.828554 50.4337 0.792908C50.2987 0.759139 50.1637 0.740378 50.0287 0.740378C49.8674 0.740378 49.7455 0.7779 49.6612 0.852943C49.5749 0.927986 49.5336 1.02554 49.5336 1.14561C49.5336 1.22065 49.5505 1.28632 49.5862 1.34072C49.6199 1.397 49.6762 1.44953 49.7512 1.49831C49.8262 1.54896 50.0024 1.64089 50.2837 1.77597C50.6531 1.95607 50.9063 2.13617 51.0413 2.31628C51.18 2.49263 51.2513 2.71025 51.2513 2.96915Z" fill="#082A2C"/>
<path d="M54.0609 1.73115L54.886 0.0952148H55.7936L54.4735 2.5266V4.07248H53.6409V2.54911L52.3208 0.0952148H53.2359L54.0609 1.73115Z" fill="#082A2C"/>
<path d="M59.483 2.96915C59.483 3.32936 59.3517 3.61264 59.0929 3.81713C58.8379 4.0235 58.4798 4.12481 58.0204 4.12481C57.5947 4.12481 57.2197 4.04601 56.8953 3.88467V3.10423C57.1653 3.2243 57.3922 3.31059 57.5778 3.35937C57.7616 3.4044 57.9322 3.42691 58.0879 3.42691C58.2716 3.42691 58.4123 3.39314 58.5079 3.32185C58.6073 3.25244 58.6579 3.14738 58.6579 3.00667C58.6579 2.93163 58.6354 2.86409 58.5904 2.80406C58.5491 2.74027 58.4873 2.68023 58.4029 2.62395C58.3166 2.56955 58.1441 2.4795 57.8853 2.3538C57.6453 2.24499 57.4616 2.13617 57.3378 2.03111C57.2178 1.92605 57.1203 1.80411 57.0453 1.6634C56.974 1.52458 56.9403 1.35948 56.9403 1.16812C56.9403 0.819173 57.0603 0.543391 57.3003 0.342652C57.5403 0.143788 57.8703 0.0424805 58.2904 0.0424805C58.4948 0.0424805 58.6898 0.0687452 58.8754 0.117523C59.0648 0.162549 59.2617 0.230087 59.468 0.320139L59.198 0.973011C58.9823 0.888588 58.8042 0.828554 58.6654 0.792908C58.5304 0.759139 58.3954 0.740378 58.2604 0.740378C58.0991 0.740378 57.9772 0.7779 57.8928 0.852943C57.8066 0.927986 57.7653 1.02554 57.7653 1.14561C57.7653 1.22065 57.7822 1.28632 57.8178 1.34072C57.8516 1.397 57.9078 1.44953 57.9829 1.49831C58.0579 1.54896 58.2341 1.64089 58.5154 1.77597C58.8848 1.95607 59.1379 2.13617 59.273 2.31628C59.4117 2.49263 59.483 2.71025 59.483 2.96915Z" fill="#082A2C"/>
<path d="M62.5852 4.07248H61.7451V0.800617H60.665V0.0952148H63.6653V0.800617H62.5852V4.07248Z" fill="#082A2C"/>
<path d="M67.4124 4.07248H65.1248V0.0952148H67.4124V0.785609H65.9648V1.66361H67.3074V2.354H65.9648V3.37459H67.4124V4.07248Z" fill="#082A2C"/>
<path d="M70.7685 4.07248L69.8084 0.950703H69.7859C69.8197 1.58669 69.8384 2.01256 69.8384 2.22643V4.07248H69.0884V0.0952148H70.236L71.1736 3.13445H71.1886L72.1861 0.0952148H73.3337V4.07248H72.5462V2.18891C72.5462 2.10449 72.5462 2.00505 72.5462 1.88874C72.5499 1.76867 72.5649 1.45912 72.5912 0.958207H72.5612L71.5411 4.07248H70.7685Z" fill="#082A2C"/>
</svg>
