<svg width="24" height="25" viewBox="0 0 24 25" fill="none" xmlns="http://www.w3.org/2000/svg">
<path d="M16.996 9.84674H17.004M17.004 7.84274V5.33874M7.50199 22.8337H4.71799C4.39499 22.8337 4.06999 22.7877 3.77299 22.6607C2.80699 22.2457 2.31599 21.6967 2.08799 21.3537C2.02611 21.2587 1.99571 21.1467 2.0011 21.0334C2.00648 20.9201 2.04738 20.8115 2.11799 20.7227C3.23799 19.2347 5.83399 18.3367 7.50199 18.3367M7.50699 22.8337H10.29C10.614 22.8337 10.938 22.7877 11.235 22.6607C12.202 22.2457 12.692 21.6967 12.921 21.3537C12.9829 21.2587 13.0133 21.1467 13.0079 21.0334C13.0025 20.9201 12.9616 20.8115 12.891 20.7227C11.771 19.2347 9.17499 18.3367 7.50699 18.3367M22 7.62574C22 10.2717 19.76 12.4177 16.996 12.4177C16.6707 12.4177 16.348 12.3877 16.028 12.3277C15.798 12.2847 15.684 12.2637 15.603 12.2757C15.523 12.2877 15.409 12.3477 15.183 12.4697C14.5357 12.8148 13.7906 12.9308 13.069 12.7987C13.343 12.4607 13.529 12.0557 13.612 11.6217C13.662 11.3567 13.538 11.0987 13.352 10.9097C12.4835 10.0371 11.9947 8.85688 11.992 7.62574C11.992 4.97974 14.232 2.83374 16.996 2.83374C19.76 2.83374 22 4.97974 22 7.62574ZM10.285 13.1227C10.2839 13.8586 9.99072 14.564 9.4698 15.0838C8.94888 15.6036 8.24289 15.8953 7.50699 15.8947C7.14244 15.8953 6.78136 15.824 6.44436 15.685C6.10736 15.5459 5.80104 15.3419 5.54289 15.0845C5.28475 14.8271 5.07983 14.5214 4.93983 14.1848C4.79984 13.8482 4.72752 13.4873 4.72699 13.1227C4.72739 12.7581 4.79961 12.3971 4.93955 12.0604C5.07948 11.7237 5.28438 11.4178 5.54254 11.1603C5.8007 10.9028 6.10706 10.6987 6.44413 10.5596C6.78119 10.4205 7.14236 10.3492 7.50699 10.3497C8.24306 10.3492 8.94921 10.641 9.47015 11.161C9.9911 11.6811 10.2842 12.3867 10.285 13.1227Z" stroke="#6C757D" stroke-width="1.5" stroke-linecap="round" stroke-linejoin="round"/>
</svg>
