<svg width="40" height="40" viewBox="0 0 40 40" fill="none" xmlns="http://www.w3.org/2000/svg">
<path d="M7.77307 13.269C7.77307 13.3624 7.77307 13.5024 7.81307 13.6824C7.85307 14.0424 7.92639 14.5424 8.03306 15.1024C8.17647 15.7338 8.36132 16.3552 8.5864 16.9624C8.84633 17.6167 9.16543 18.246 9.53973 18.8424C9.7264 19.1357 9.91972 19.409 10.1131 19.669C10.3064 19.929 10.5397 20.1757 10.7464 20.3957C11.1199 20.79 11.5307 21.1473 11.9731 21.4624C13.7331 22.7957 16.6864 23.1024 18.8197 22.7957C18.8573 22.8069 18.8973 22.8065 18.9346 22.7944C18.9719 22.7824 19.0047 22.7593 19.0285 22.7282C19.0524 22.6971 19.0662 22.6595 19.0682 22.6204C19.0702 22.5812 19.0603 22.5424 19.0397 22.509C18.6175 20.6663 18.9232 18.7318 19.8931 17.109C20.4575 16.2331 21.1294 15.4314 21.8931 14.7224L22.1997 14.429C22.4831 14.1882 22.7815 13.9655 23.0931 13.7624C24.1301 13.0896 25.2829 12.6149 26.4931 12.3624C27.8459 12.0953 29.2336 12.0547 30.5997 12.2424C31.0886 12.308 31.5737 12.3993 32.0531 12.5157L32.5997 12.669C32.5831 11.7798 32.4394 10.8976 32.1731 10.049C31.8778 9.15203 31.4654 8.29798 30.9464 7.50903C29.7812 5.7517 28.1709 4.33467 26.2797 3.40237C24.2787 2.39189 22.061 1.88609 19.8197 1.92904C17.595 1.96327 15.4146 2.55708 13.4797 3.6557C11.651 4.66374 10.1198 6.13522 9.03973 7.92236C8.11469 9.48434 7.66523 11.2822 7.7464 13.0957L7.77307 13.269Z" fill="url(#paint0_linear_20_258)"/>
<path d="M38.8196 23.6553C38.7529 23.1286 38.6596 22.6086 38.5463 22.102C38.2925 21.1294 37.9114 20.1947 37.413 19.322C36.5395 17.7261 35.2062 16.43 33.5863 15.602L33.0929 15.362C32.6575 15.1683 32.2125 14.9969 31.7596 14.8486C30.4714 14.4194 29.1165 14.2252 27.7596 14.2753C24.8663 14.3286 21.6129 16.2219 20.4263 18.9419C20.41 18.9918 20.41 19.0455 20.4263 19.0953C20.4378 19.14 20.4636 19.1798 20.4996 19.2086C21.5769 20.277 22.5647 21.432 23.453 22.6619C24.2317 24.0087 24.7963 25.4683 25.1263 26.9886V27.102C25.155 27.2004 25.1772 27.3006 25.1929 27.4019C25.2329 27.6553 25.293 28.0353 25.333 28.5153C25.3561 29.0714 25.3383 29.6285 25.2796 30.1819C25.1936 30.8474 25.0463 31.5035 24.8396 32.1419C24.7263 32.4753 24.5996 32.8086 24.4596 33.1553C24.3196 33.502 24.1463 33.8219 23.9796 34.1086C23.6635 34.6923 23.2977 35.2477 22.8863 35.7686C22.5886 36.1603 22.2657 36.5322 21.9196 36.882L21.5129 37.2886C23.1436 38.1758 24.9947 38.5761 26.8463 38.4419C28.9455 38.3017 30.971 37.612 32.7196 36.4419C34.5928 35.2256 36.1368 33.5658 37.2149 31.6098C38.2929 29.6537 38.8716 27.4619 38.8996 25.2286C38.9079 24.703 38.8812 24.1774 38.8196 23.6553Z" fill="url(#paint1_linear_20_258)"/>
<path d="M22.6204 32.322C23.5071 30.682 23.5204 28.6953 23.3538 26.8886C23.305 25.483 22.8765 24.1169 22.1138 22.9353C21.0671 23.8886 19.3604 24.0153 18.0071 24.1153C17.3432 24.1905 16.6751 24.2217 16.0071 24.2086C14.9669 24.1618 13.9366 23.9849 12.9404 23.6819L12.5471 23.5486C12.1895 23.4293 11.8417 23.2822 11.5071 23.1086C11.0134 22.8596 10.5426 22.5673 10.1004 22.2353C9.85376 22.0419 9.5871 21.8353 9.33376 21.6086C9.08043 21.3819 8.85377 21.1353 8.6071 20.8686C8.12983 20.3308 7.69936 19.7531 7.32042 19.1419C6.98637 18.5686 6.6902 17.974 6.43376 17.3619C6.22043 16.8153 6.06043 16.322 5.95376 15.9686C5.89652 15.787 5.84979 15.6023 5.81376 15.4153C4.24153 16.3755 2.97453 17.7627 2.16042 19.4153C1.24613 21.2968 0.82408 23.3796 0.933759 25.4686C1.04765 27.7094 1.71905 29.8863 2.88709 31.802C4.0387 33.7149 5.64083 35.317 7.55375 36.4686C9.34157 37.5378 11.3777 38.1215 13.4604 38.1619C15.281 38.1985 17.0709 37.6901 18.6004 36.702L19.0604 36.3819C19.4496 36.1026 19.8214 35.7998 20.1737 35.4753C20.6592 35.0446 21.1054 34.5716 21.5071 34.062C21.7271 33.7886 21.9338 33.5153 22.1271 33.222C22.3204 32.9286 22.4604 32.6286 22.6204 32.322Z" fill="url(#paint2_linear_20_258)"/>
<defs>
<linearGradient id="paint0_linear_20_258" x1="13.8331" y1="21.5157" x2="26.0531" y2="1.96237" gradientUnits="userSpaceOnUse">
<stop stop-color="#E5322D"/>
<stop offset="1" stop-color="#F08504"/>
</linearGradient>
<linearGradient id="paint1_linear_20_258" x1="21.5063" y1="18.3553" x2="34.8396" y2="34.7953" gradientUnits="userSpaceOnUse">
<stop stop-color="#004996"/>
<stop offset="1" stop-color="#3AB4E6"/>
</linearGradient>
<linearGradient id="paint2_linear_20_258" x1="2.95376" y1="31.5353" x2="20.9538" y2="20.8686" gradientUnits="userSpaceOnUse">
<stop stop-color="#97BE11"/>
<stop offset="1" stop-color="#258F2D"/>
</linearGradient>
</defs>
</svg>
