<svg width="40" height="40" viewBox="0 0 40 40" fill="none" xmlns="http://www.w3.org/2000/svg">
<path d="M9.2531 27.7935C6.4312 26.6223 3.82952 24.9787 1.55976 22.9335C1.21812 20.7604 1.26326 18.5441 1.69309 16.3868C4.00315 14.3272 6.65075 12.6809 9.51976 11.5201C9.60504 11.6254 9.70112 11.7215 9.80642 11.8068C8.26724 16.9099 8.19102 22.3425 9.58643 27.4868C9.46298 27.5747 9.351 27.6778 9.2531 27.7935Z" fill="url(#paint0_linear_20_601)"/>
<path d="M10.7733 30.9731C11.8339 33.5368 13.2647 35.9312 15.02 38.0797C11.9075 37.2089 9.073 35.5481 6.79168 33.2586C4.51037 30.9691 2.85973 28.1287 2 25.0131C4.07007 26.6555 6.3587 28.0017 8.8 29.0131C8.79632 29.0284 8.79632 29.0444 8.8 29.0597C8.8 29.5725 9.00369 30.0642 9.36626 30.4268C9.72883 30.7894 10.2206 30.9931 10.7333 30.9931L10.7733 30.9731Z" fill="url(#paint1_linear_20_601)"/>
<path d="M9.07351 10.3468C6.63412 11.3264 4.34318 12.6413 2.26685 14.2535C3.21671 11.3196 4.87864 8.66674 7.10413 6.53199C9.32961 4.39725 12.0493 2.84712 15.0202 2.02014C13.4332 3.95049 12.1125 6.0851 11.0935 8.36681H10.9868C10.4741 8.36681 9.98234 8.5705 9.61977 8.93307C9.2572 9.29564 9.05351 9.78739 9.05351 10.3001C9.05537 10.3173 9.06234 10.3336 9.07351 10.3468Z" fill="url(#paint2_linear_20_601)"/>
<path d="M12.2864 8.85344C13.4922 6.17363 15.1295 3.70981 17.133 1.56011C18.0988 1.40667 19.0752 1.33086 20.0531 1.33344C21.0242 1.33084 21.9941 1.40665 22.953 1.56011C24.9596 3.7238 26.599 6.2009 27.8064 8.89345C27.6659 9.0313 27.5428 9.18577 27.4397 9.35344C24.9271 8.64713 22.3297 8.28825 19.7197 8.28678C17.308 8.28738 14.9063 8.59655 12.573 9.20677C12.4921 9.07786 12.3958 8.95922 12.2864 8.85344Z" fill="url(#paint3_linear_20_601)"/>
<path d="M28.1339 30.5067C26.9026 33.4617 25.1503 36.1714 22.9606 38.5067C21.0323 38.8089 19.0688 38.8089 17.1405 38.5067C14.9559 36.1688 13.2062 33.4596 11.9739 30.5067C12.0863 30.4053 12.1889 30.2937 12.2805 30.1733C14.7059 30.8311 17.2076 31.1652 19.7206 31.1667C22.4295 31.1652 25.124 30.7723 27.7206 30C27.8296 30.1904 27.9692 30.3616 28.1339 30.5067Z" fill="url(#paint4_linear_20_601)"/>
<path d="M29.0671 12.2132C30.5414 17.0599 30.6199 22.2239 29.2937 27.1132C28.8494 27.1343 28.426 27.3084 28.0955 27.6062C27.765 27.9039 27.5476 28.3068 27.4804 28.7465C24.9629 29.5023 22.3489 29.8886 19.7204 29.8932C17.3318 29.8888 14.9539 29.5728 12.6471 28.9532C12.629 28.4721 12.4303 28.0155 12.0905 27.6744C11.7506 27.3334 11.2948 27.133 10.8137 27.1132C9.49166 22.2264 9.56556 17.0668 11.0271 12.2199C11.5132 12.2123 11.9786 12.0212 12.3297 11.6849C12.6809 11.3486 12.8919 10.8919 12.9204 10.4065C17.6125 9.18387 22.5472 9.24604 27.2071 10.5865C27.2748 11.0338 27.4988 11.4426 27.8393 11.7404C28.1798 12.0382 28.6148 12.2057 29.0671 12.2132Z" fill="url(#paint5_radial_20_601)"/>
<path d="M29.0205 8.34686C27.9901 6.06765 26.6679 3.932 25.0872 1.99353C28.1799 2.85474 30.9993 4.4966 33.2747 6.76146C35.5501 9.02632 37.205 11.8381 38.0805 14.9269C35.9518 13.1431 33.5732 11.6809 31.0205 10.5869C31.031 10.4871 31.031 10.3866 31.0205 10.2869C31.0187 9.7735 30.8136 9.28176 30.4499 8.91938C30.0863 8.557 29.5939 8.35352 29.0805 8.35353L29.0205 8.34686Z" fill="url(#paint6_linear_20_601)"/>
<path d="M31.2863 28.7003C33.8222 27.5734 36.1785 26.0796 38.2797 24.267C37.5216 27.5425 35.8951 30.5532 33.5711 32.9827C31.2472 35.4123 28.3116 37.1709 25.073 38.0736C26.8315 35.9273 28.2667 33.5353 29.333 30.9736H29.3797C29.6615 30.9707 29.9394 30.9068 30.1943 30.7863C30.4491 30.6658 30.6749 30.4916 30.856 30.2756C31.0372 30.0597 31.1694 29.807 31.2437 29.5351C31.318 29.2632 31.3325 28.9784 31.2863 28.7003Z" fill="url(#paint7_linear_20_601)"/>
<path d="M38.7668 20.0468C38.7664 20.7688 38.7219 21.4902 38.6335 22.2068C36.3087 24.4625 33.5995 26.2845 30.6335 27.5868C30.596 27.5479 30.5534 27.5142 30.5068 27.4868C31.9084 22.3467 31.8252 16.9148 30.2668 11.8201L30.3935 11.7201C33.4036 13.007 36.1549 14.8299 38.5135 17.1001C38.679 18.0737 38.7637 19.0592 38.7668 20.0468Z" fill="url(#paint8_linear_20_601)"/>
<defs>
<linearGradient id="paint0_linear_20_601" x1="1.33309" y1="19.6601" x2="9.80642" y2="19.6601" gradientUnits="userSpaceOnUse">
<stop stop-color="#3AB4E6"/>
<stop offset="1" stop-color="#004996"/>
</linearGradient>
<linearGradient id="paint1_linear_20_601" x1="6.79333" y1="33.2997" x2="9.66" y2="30.3597" gradientUnits="userSpaceOnUse">
<stop stop-color="#F08504"/>
<stop offset="1" stop-color="#E5322D"/>
</linearGradient>
<linearGradient id="paint2_linear_20_601" x1="7.02684" y1="6.50014" x2="9.43351" y2="8.90681" gradientUnits="userSpaceOnUse">
<stop stop-color="#F08504"/>
<stop offset="1" stop-color="#E5322D"/>
</linearGradient>
<linearGradient id="paint3_linear_20_601" x1="20.0464" y1="1.92677" x2="20.0464" y2="8.13344" gradientUnits="userSpaceOnUse">
<stop stop-color="#E53282"/>
<stop offset="1" stop-color="#851D7B"/>
</linearGradient>
<linearGradient id="paint4_linear_20_601" x1="20.0539" y1="31.2867" x2="20.0539" y2="38.7267" gradientUnits="userSpaceOnUse">
<stop stop-color="#851D7B"/>
<stop offset="1" stop-color="#E53282"/>
</linearGradient>
<radialGradient id="paint5_radial_20_601" cx="0" cy="0" r="1" gradientUnits="userSpaceOnUse" gradientTransform="translate(20.0537 19.7132) scale(10.18 10.18)">
<stop stop-color="#97BE11"/>
<stop offset="0.16" stop-color="#92BC12"/>
<stop offset="0.36" stop-color="#82B516"/>
<stop offset="0.58" stop-color="#69AB1C"/>
<stop offset="0.82" stop-color="#459C25"/>
<stop offset="1" stop-color="#258F2D"/>
</radialGradient>
<linearGradient id="paint6_linear_20_601" x1="30.4805" y1="9.28686" x2="33.5805" y2="6.9602" gradientUnits="userSpaceOnUse">
<stop stop-color="#E5322D"/>
<stop offset="1" stop-color="#F08504"/>
</linearGradient>
<linearGradient id="paint7_linear_20_601" x1="30.7397" y1="30.3803" x2="33.6863" y2="32.8603" gradientUnits="userSpaceOnUse">
<stop stop-color="#E5322D"/>
<stop offset="1" stop-color="#F08504"/>
</linearGradient>
<linearGradient id="paint8_linear_20_601" x1="30.2802" y1="19.6534" x2="38.7668" y2="19.6534" gradientUnits="userSpaceOnUse">
<stop stop-color="#004996"/>
<stop offset="1" stop-color="#3AB4E6"/>
</linearGradient>
</defs>
</svg>
