<svg width="40" height="40" viewBox="0 0 40 40" fill="none" xmlns="http://www.w3.org/2000/svg">
<path d="M36.951 14.2244C36.934 13.8083 36.8935 13.3935 36.8297 12.982C36.7554 12.5464 36.6563 12.1154 36.5328 11.6911C35.9173 9.81868 34.8806 8.11232 33.5025 6.70322L33.3813 6.59413V6.55776C32.0134 5.23783 30.3516 4.26157 28.5328 3.70928C28.1104 3.58646 27.6814 3.48733 27.2479 3.41232C26.8469 3.34511 26.4421 3.3026 26.0358 3.28504C25.2862 3.25621 24.5362 3.32755 23.8055 3.49716C23.1804 3.64 22.5813 3.87922 22.0297 4.20625C21.5539 4.47787 21.131 4.83304 20.7813 5.25474C20.3421 5.77626 20.0456 6.40268 19.9207 7.07292V9.12746C20.2135 8.35522 20.7073 7.67522 21.351 7.15776C21.7192 6.85046 22.1269 6.59365 22.5631 6.39413C23.0549 6.17819 23.5722 6.02546 24.1025 5.93959C24.704 5.84735 25.3143 5.827 25.9207 5.87898C26.5864 5.94392 27.2429 6.08213 27.8782 6.2911C29.2921 6.77549 30.5771 7.57552 31.6358 8.6305C32.6919 9.69063 33.492 10.9779 33.9752 12.3941C34.1852 13.0292 34.3234 13.6858 34.3873 14.3517C34.4398 14.958 34.4194 15.5684 34.3267 16.1699C34.2445 16.701 34.0917 17.2187 33.8722 17.7093C33.6761 18.146 33.4212 18.5538 33.1146 18.9214C32.5782 19.559 31.8815 20.0423 31.0964 20.3214H33.151C33.8212 20.1964 34.4476 19.8999 34.9691 19.4608C35.3869 19.1175 35.7381 18.7005 36.0055 18.2305C36.334 17.6775 36.5733 17.0762 36.7146 16.4487C36.8951 15.7216 36.9746 14.9732 36.951 14.2244Z" fill="url(#paint0_linear_20_115)"/>
<path d="M32.7884 17.6006C33.0599 17.1715 33.2643 16.7034 33.3945 16.2127C33.5155 15.6738 33.5725 15.1225 33.5642 14.5703C33.5325 13.9547 33.4308 13.3447 33.2611 12.7521C33.0669 12.0992 32.7899 11.474 32.4369 10.8915C32.0478 10.2753 31.5992 9.69882 31.0975 9.17025L31.0127 9.09751L30.8733 8.946C30.4037 8.51506 29.8897 8.13516 29.3399 7.81267C28.7695 7.46527 28.159 7.18849 27.5218 6.98843C26.9292 6.81874 26.3192 6.71708 25.7036 6.6854C25.1495 6.68011 24.5965 6.73703 24.0551 6.85509C23.5657 6.9892 23.0982 7.19333 22.6672 7.46115C22.2895 7.6998 21.9571 8.00348 21.6854 8.35812C21.1999 9.00939 20.9174 9.78944 20.8733 10.6005C20.8519 11.0049 20.864 11.4103 20.9096 11.8127C21.1352 11.184 21.5168 10.623 22.0187 10.1824C22.5956 9.71013 23.2882 9.40049 24.0248 9.28539C24.2248 9.25509 24.4308 9.23085 24.6308 9.21872C24.8448 9.20687 25.0593 9.20687 25.2733 9.21872C25.4915 9.21872 25.7157 9.26721 25.9399 9.30964C26.1642 9.35206 26.3884 9.4248 26.6187 9.49753C27.58 9.82136 28.4548 10.3603 29.1763 11.0733C29.8833 11.8056 30.4158 12.6882 30.7339 13.6551C30.8057 13.8761 30.8664 14.1007 30.9157 14.3278C30.9608 14.5498 30.9912 14.7745 31.0066 15.0005C31.0066 15.2187 31.0066 15.4309 31.0066 15.643C31.0066 15.8551 30.9642 16.0612 30.9339 16.249C30.8225 16.9867 30.5125 17.6802 30.0369 18.2551C29.599 18.7601 29.0371 19.1423 28.4066 19.3642C28.8087 19.4128 29.2144 19.425 29.6187 19.4006C30.4298 19.3614 31.2108 19.0807 31.8612 18.5945C32.2255 18.3194 32.5393 17.9831 32.7884 17.6006Z" fill="url(#paint1_linear_20_115)"/>
<path d="M29.5573 17.4667C29.7864 17.1537 29.9587 16.8029 30.0663 16.4303C30.178 16.0569 30.2311 15.6684 30.2239 15.2788C30.2294 14.8525 30.1722 14.4278 30.0542 14.0182C29.7922 13.1053 29.3069 12.2721 28.6421 11.5939C27.9658 10.9266 27.1319 10.4409 26.2179 10.1818C25.8077 10.0664 25.3833 10.0092 24.9573 10.0121C24.5692 10.0065 24.1827 10.0617 23.8118 10.1758C23.4391 10.2851 23.0869 10.455 22.7694 10.6788C22.4765 10.8994 22.2208 11.1654 22.0118 11.4667C21.6363 12.0351 21.3958 12.6819 21.3088 13.3576C21.2618 13.6971 21.2355 14.0391 21.23 14.3818C21.4293 13.9207 21.7247 13.5074 22.0966 13.1697C22.4856 12.8363 22.9526 12.6069 23.4542 12.503C24.0396 12.4026 24.6405 12.4439 25.2066 12.6236C25.7727 12.8033 26.2875 13.1161 26.7078 13.5358C27.1281 13.9555 27.4416 14.4698 27.6221 15.0356C27.8026 15.6015 27.8448 16.2024 27.7451 16.7879C27.638 17.2884 27.409 17.7547 27.0785 18.1454C26.7435 18.5204 26.3295 18.8164 25.8663 19.0121C26.2092 19.0095 26.5514 18.9832 26.8906 18.9333C27.5665 18.8473 28.2135 18.6067 28.7815 18.2303C29.0803 18.0201 29.3423 17.7621 29.5573 17.4667Z" fill="url(#paint2_linear_20_115)"/>
<path d="M26.8722 17.0852C27.0636 16.5891 27.1078 16.0482 26.9995 15.5276C26.9316 15.256 26.8361 14.992 26.7146 14.7397C26.5517 14.4991 26.3671 14.2739 26.1631 14.067V14.0367L25.9328 13.8488C25.7876 13.7303 25.6336 13.6229 25.4722 13.5276C25.2208 13.4026 24.9567 13.305 24.6843 13.2367C24.1295 13.1167 23.5509 13.1772 23.0329 13.4094C22.515 13.6417 22.0849 14.0335 21.8055 14.5276C21.5278 15.0141 21.3236 15.539 21.1995 16.0852C21.1268 16.364 21.0722 16.6428 21.0298 16.9034C21.1839 16.5928 21.3887 16.3101 21.6358 16.067C21.873 15.8428 22.1564 15.6731 22.4661 15.57C22.7714 15.4775 23.0955 15.4668 23.4062 15.5392C23.7168 15.6115 24.0029 15.7643 24.2358 15.9822C24.4548 16.2145 24.6087 16.5003 24.6821 16.811C24.7555 17.1216 24.7458 17.4461 24.654 17.7519C24.5477 18.0601 24.3785 18.3428 24.1571 18.5822C23.9088 18.826 23.6247 19.0303 23.3146 19.1882C23.5813 19.1397 23.854 19.0852 24.1328 19.0185C24.6798 18.897 25.2051 18.6926 25.6904 18.4125C26.223 18.1163 26.6395 17.6484 26.8722 17.0852Z" fill="url(#paint3_linear_20_115)"/>
<path d="M19.0358 5.24889C18.686 4.8272 18.2631 4.47201 17.7873 4.2004C17.2341 3.87234 16.6328 3.63307 16.0055 3.49131C15.2769 3.32166 14.5288 3.25032 13.7812 3.27919C13.375 3.29675 12.9702 3.33925 12.5691 3.40646C12.1338 3.48212 11.7029 3.58125 11.2782 3.70343C9.39185 4.27657 7.67546 5.30498 6.28034 6.69799C4.88522 8.09099 3.85421 9.80583 3.27821 11.6913C3.15472 12.1156 3.05556 12.5466 2.98124 12.9822C2.91146 13.393 2.87095 13.8082 2.86003 14.2246C2.82546 14.9724 2.89687 15.7212 3.07215 16.4489C3.21408 17.0752 3.45117 17.6762 3.77518 18.2307C4.04685 18.7047 4.40207 19.1256 4.82367 19.4731C5.34564 19.9116 5.97187 20.208 6.64185 20.3337H8.69639C7.92321 20.0395 7.24158 19.5461 6.72064 18.9034C6.4119 18.5374 6.15682 18.1292 5.96306 17.6913C5.74079 17.2018 5.5878 16.6837 5.50852 16.1519C5.41582 15.5504 5.39548 14.94 5.44791 14.3337C5.50675 13.6676 5.64303 13.0107 5.85397 12.3762C6.35708 10.9489 7.17056 9.65107 8.23579 8.57616C9.28944 7.54123 10.5607 6.75445 11.957 6.27313C12.5923 6.06373 13.2488 5.92551 13.9146 5.86101C14.5209 5.80915 15.1312 5.8295 15.7328 5.92162C16.263 6.00749 16.7803 6.16022 17.2722 6.37616C17.7084 6.57568 18.116 6.83249 18.4843 7.1398C19.1263 7.65887 19.6197 8.33837 19.9146 9.10949V7.05495C19.7824 6.3872 19.4796 5.76502 19.0358 5.24889Z" fill="url(#paint4_linear_20_115)"/>
<path d="M18.9514 10.5881C18.9123 9.77698 18.6316 8.99608 18.1454 8.34568C17.8737 7.99104 17.5412 7.68735 17.1636 7.4487C16.7325 7.18087 16.2651 6.97674 15.7757 6.84264C15.2343 6.72458 14.6813 6.66766 14.1272 6.67294C13.5116 6.70415 12.9015 6.80583 12.309 6.97597C11.6571 7.17281 11.0322 7.44967 10.4484 7.80022C9.82743 8.16558 9.25173 8.60295 8.73326 9.10325C8.22289 9.62649 7.77355 10.2059 7.39387 10.8305C7.04514 11.4144 6.77031 12.0394 6.57568 12.6911C6.40311 13.2831 6.30139 13.8934 6.27265 14.5093C6.26131 15.0617 6.31831 15.6133 6.44235 16.1517C6.57255 16.6425 6.77693 17.1105 7.04841 17.5396C7.29087 17.918 7.59628 18.2521 7.95144 18.5275C8.60076 19.0157 9.3823 19.2967 10.1939 19.3335C10.5982 19.358 11.0039 19.3458 11.406 19.2972C10.7747 19.0769 10.2124 18.6944 9.77568 18.1881C9.29773 17.6147 8.98734 16.9206 8.87871 16.182C8.84208 15.9817 8.81779 15.7793 8.80599 15.576C8.80599 15.3639 8.80599 15.1517 8.80599 14.9335C8.82232 14.708 8.85064 14.4834 8.89083 14.2608C8.94538 14.0366 9.00599 13.8123 9.07871 13.5881C9.40637 12.6254 9.94708 11.7491 10.6605 11.0245C11.3821 10.3115 12.2568 9.77254 13.2181 9.4487C13.4484 9.37598 13.6727 9.31537 13.8908 9.26083C14.109 9.20628 14.3454 9.19416 14.5636 9.16992C14.7775 9.15798 14.992 9.15798 15.206 9.16992C15.4181 9.16992 15.6242 9.20628 15.812 9.23659C16.5469 9.35158 17.2375 9.6613 17.812 10.1336C18.3177 10.5709 18.7001 11.1329 18.9211 11.7639C18.9684 11.3738 18.9785 10.9801 18.9514 10.5881Z" fill="url(#paint5_linear_20_115)"/>
<path d="M12.054 16.7819C11.9546 16.197 11.9968 15.5968 12.177 15.0315C12.3572 14.4662 12.6701 13.9523 13.0897 13.5328C13.5092 13.1132 14.0231 12.8003 14.5884 12.6201C15.1537 12.4399 15.7539 12.3977 16.3389 12.4971C16.8426 12.6 17.3119 12.8295 17.7025 13.1638C18.0744 13.5015 18.3699 13.9147 18.5692 14.3759C18.5615 14.0331 18.5331 13.691 18.4843 13.3516C18.4 12.6753 18.1593 12.0279 17.7813 11.4607C17.5745 11.1596 17.3208 10.8936 17.0298 10.6728C16.7122 10.4491 16.3601 10.2792 15.9873 10.1698C15.6142 10.0562 15.2258 10.001 14.8358 10.0062C14.4118 10.0037 13.9894 10.0608 13.5813 10.1759C12.6672 10.435 11.8333 10.9207 11.157 11.588C10.4906 12.266 10.0033 13.0991 9.73885 14.0122C9.62717 14.4232 9.57012 14.847 9.56915 15.2729C9.56696 15.6626 9.62209 16.0506 9.73279 16.4244C9.84044 16.797 10.0128 17.1478 10.2419 17.4607C10.4594 17.7563 10.7259 18.0126 11.0298 18.2183C11.5977 18.5947 12.2447 18.8353 12.9207 18.9213C13.2599 18.9712 13.6021 18.9975 13.9449 19.0001C13.4818 18.8044 13.0678 18.5084 12.7328 18.1335C12.3959 17.7476 12.1624 17.2826 12.054 16.7819Z" fill="url(#paint6_linear_20_115)"/>
<path d="M18.5754 16.0793C18.4513 15.5331 18.2471 15.0082 17.9693 14.5218C17.69 14.0276 17.2599 13.6358 16.7419 13.4036C16.224 13.1713 15.6453 13.1108 15.0906 13.2308C14.5456 13.3466 14.0451 13.6158 13.6481 14.0066C13.4492 14.2204 13.2725 14.454 13.1209 14.7036C12.9967 14.9547 12.9011 15.219 12.836 15.4915C12.7277 16.0121 12.7719 16.5529 12.9633 17.049C13.1916 17.6062 13.6017 18.0697 14.1269 18.3642C14.6106 18.6432 15.1337 18.8476 15.6784 18.9702C15.9633 19.0369 16.236 19.0915 16.5027 19.1399C16.1926 18.9821 15.9085 18.7777 15.6603 18.5339C15.4388 18.2946 15.2696 18.0118 15.1633 17.7036C15.0715 17.3978 15.0618 17.0733 15.1352 16.7627C15.2086 16.452 15.3625 16.1662 15.5815 15.9339C15.8144 15.716 16.1005 15.5632 16.4111 15.4909C16.7218 15.4186 17.046 15.4292 17.3512 15.5218C17.6609 15.6248 17.9443 15.7945 18.1815 16.0187C18.4267 16.2635 18.6313 16.5458 18.7875 16.8551C18.7027 16.6369 18.6421 16.3581 18.5754 16.0793Z" fill="url(#paint7_linear_20_115)"/>
<path d="M21.6492 32.3276C21.9242 32.6792 22.256 32.9824 22.631 33.2246C23.062 33.4924 23.5295 33.6966 24.0189 33.8307C24.5603 33.9487 25.1133 34.0057 25.6674 34.0004C26.2835 33.9694 26.8938 33.8657 27.4855 33.6913C28.1367 33.4949 28.7599 33.2159 29.3401 32.861C29.8829 32.5319 30.3906 32.148 30.8552 31.7155C30.8977 31.6792 30.9401 31.6246 30.9825 31.5822L31.0613 31.5155C31.5626 30.9866 32.0111 30.4101 32.4007 29.7943C32.7537 29.2118 33.0307 28.5865 33.2249 27.9337C33.3942 27.341 33.4958 26.7311 33.528 26.1155C33.5366 25.5633 33.4797 25.0119 33.3583 24.4731C33.2281 23.9823 33.0237 23.5143 32.7522 23.0852C32.5098 22.7068 32.2043 22.3727 31.8492 22.0973C31.1988 21.6111 30.4179 21.3304 29.6068 21.2913C29.2025 21.2669 28.7968 21.279 28.3946 21.3276C29.0252 21.5495 29.587 21.9317 30.0249 22.4367C30.4995 23.0099 30.8095 23.7012 30.9219 24.4367C30.9219 24.6367 30.9825 24.8428 30.9946 25.0428C31.0068 25.2428 30.9946 25.467 30.9946 25.6852C30.9839 25.919 30.9576 26.1519 30.9159 26.3822C30.8666 26.6093 30.8059 26.8339 30.734 27.0549C30.4061 28.0157 29.8654 28.89 29.1522 29.6125C28.4329 30.3297 27.5576 30.8711 26.5946 31.1943C26.3643 31.267 26.1401 31.3276 25.9158 31.3822C25.6916 31.4367 25.4674 31.4489 25.2492 31.4731C25.031 31.4973 24.8128 31.4731 24.6068 31.4731C24.4007 31.4731 24.1886 31.4367 24.0007 31.4064C23.2641 31.2913 22.5716 30.9817 21.9946 30.5095C21.4808 30.0707 21.0884 29.5072 20.8552 28.8731C20.8096 29.2754 20.7974 29.6809 20.8189 30.0852C20.8683 30.8982 21.1572 31.6785 21.6492 32.3276Z" fill="url(#paint8_linear_20_115)"/>
<path d="M21.8308 26.1519C22.1102 26.646 22.5403 27.0378 23.0583 27.2701C23.5762 27.5023 24.1548 27.5628 24.7096 27.4428C24.982 27.3745 25.2461 27.2769 25.4975 27.1519C25.6589 27.0566 25.8129 26.9492 25.9581 26.8306L26.0672 26.7397L26.1945 26.6306C26.396 26.4205 26.571 26.1864 26.7157 25.9337C26.8372 25.6814 26.9326 25.4174 27.0005 25.1458C27.1092 24.6252 27.065 24.0843 26.8733 23.5882C26.6434 23.0301 26.2311 22.5664 25.7036 22.2731C25.2183 21.9929 24.693 21.7886 24.146 21.667C23.8672 21.6003 23.5945 21.5458 23.3278 21.4973C23.6391 21.6532 23.9235 21.8578 24.1702 22.1034C24.3903 22.3414 24.5594 22.6219 24.6672 22.9276C24.7601 23.2342 24.7704 23.5599 24.697 23.8717C24.6235 24.1836 24.469 24.4705 24.249 24.7034C24.0161 24.9213 23.73 25.074 23.4194 25.1464C23.1087 25.2187 22.7845 25.2081 22.4793 25.1155C22.1706 25.0102 21.8877 24.8408 21.649 24.6185C21.4019 24.3754 21.197 24.0927 21.043 23.7822C21.0854 24.0428 21.1399 24.3216 21.2127 24.6003C21.3422 25.1448 21.5505 25.6675 21.8308 26.1519Z" fill="url(#paint9_linear_20_115)"/>
<path d="M36.7398 24.2247C36.5919 23.5954 36.3443 22.9939 36.0064 22.4428C35.7367 21.9675 35.3812 21.5462 34.9579 21.2004C34.4368 20.7596 33.8104 20.461 33.1398 20.3337H31.0973C31.8682 20.6322 32.5488 21.1249 33.0731 21.7641C33.3771 22.1336 33.6317 22.541 33.8307 22.9762C34.0493 23.4691 34.2022 23.9888 34.2852 24.5216C34.3779 25.1231 34.3983 25.7335 34.3458 26.3398C34.2819 27.0057 34.1437 27.6623 33.9337 28.2974C33.4505 29.7136 32.6504 31.0009 31.5943 32.061C30.5356 33.116 29.2506 33.916 27.8367 34.4004C27.2013 34.6094 26.5448 34.7476 25.8792 34.8125C25.2728 34.8614 24.6628 34.8411 24.061 34.7519C23.5307 34.6661 23.0134 34.5133 22.5216 34.2974C22.0854 34.0979 21.6777 33.841 21.3095 33.5337C20.6655 33.014 20.1718 32.332 19.8792 31.558V33.6186C20.0054 34.2884 20.3018 34.9145 20.7398 35.4368C21.0895 35.8585 21.5124 36.2137 21.9882 36.4853C22.541 36.8098 23.1397 37.0489 23.764 37.1944C24.4945 37.3648 25.2449 37.4341 25.9943 37.4004C26.4006 37.3878 26.8056 37.3473 27.2064 37.2792C27.6399 37.2042 28.0688 37.105 28.4913 36.9822C30.3606 36.4132 32.0626 35.3958 33.4488 34.0186C35.1857 32.3282 36.3403 30.1293 36.7458 27.7398C36.8096 27.3283 36.8501 26.9135 36.867 26.4974C36.9309 25.7376 36.8881 24.9726 36.7398 24.2247Z" fill="url(#paint10_linear_20_115)"/>
<path d="M27.739 23.8915C27.8431 24.4788 27.8042 25.0825 27.6257 25.6516C27.4472 26.2207 27.1343 26.7385 26.7134 27.1611C26.2926 27.5838 25.7761 27.8989 25.2078 28.0798C24.6394 28.2607 24.0359 28.3021 23.4481 28.2005C22.9471 28.0949 22.4805 27.8657 22.0905 27.5339C21.7186 27.1962 21.4232 26.7829 21.2239 26.3218C21.2294 26.6644 21.2557 27.0065 21.3027 27.346C21.3887 28.02 21.6293 28.6651 22.0057 29.2309C22.2114 29.5348 22.4677 29.8012 22.7633 30.0187C23.0791 30.2467 23.4317 30.4189 23.8057 30.5278C24.1766 30.6419 24.5631 30.6971 24.9512 30.6914C25.3772 30.6943 25.8016 30.6372 26.2118 30.5218C27.1258 30.2627 27.9597 29.7769 28.636 29.1096C29.3008 28.4314 29.7861 27.5983 30.0481 26.6854C30.1657 26.2757 30.2229 25.851 30.2178 25.4248C30.225 25.0351 30.1719 24.6467 30.0602 24.2733C29.9526 23.9006 29.7803 23.5499 29.5511 23.2369C29.3337 22.9412 29.0673 22.685 28.7633 22.4793C28.1953 22.1029 27.5483 21.8623 26.8724 21.7763C26.5332 21.7264 26.1909 21.7001 25.8481 21.6975C26.3097 21.8932 26.7233 22.1868 27.0602 22.5581C27.3899 22.9419 27.6226 23.3991 27.739 23.8915Z" fill="url(#paint11_linear_20_115)"/>
<path d="M18.4661 33.5092C18.0978 33.8165 17.6902 34.0733 17.254 34.2728C16.7621 34.4887 16.2449 34.6415 15.7146 34.7273C15.1128 34.8164 14.5028 34.8367 13.8964 34.788C13.2306 34.7235 12.5741 34.5852 11.9388 34.3758C10.5238 33.8902 9.23704 33.0904 8.17518 32.0364C7.12324 30.973 6.32374 29.6868 5.83579 28.2728C5.62485 27.6383 5.48857 26.9813 5.42973 26.3152C5.37729 25.7089 5.39764 25.0985 5.49034 24.4971C5.57052 23.9636 5.72346 23.4436 5.94488 22.9516C6.14155 22.5152 6.39639 22.1075 6.70246 21.7395C7.23324 21.1022 7.92027 20.6136 8.69639 20.3213H6.64185C5.97144 20.4493 5.34529 20.7478 4.82367 21.188C4.40207 21.5354 4.04685 21.9564 3.77518 22.4304C3.45022 22.9845 3.21306 23.5855 3.07215 24.2122C2.89687 24.9399 2.82546 25.6887 2.86003 26.4364C2.87095 26.8529 2.91146 27.2681 2.98124 27.6789C3.38675 30.0684 4.54133 32.2672 6.27821 33.9577C7.66004 35.3287 9.35554 36.3418 11.2176 36.9092C11.6422 37.0313 12.0732 37.1305 12.5085 37.2061C12.9093 37.2742 13.3143 37.3147 13.7206 37.3273C14.468 37.3611 15.2164 37.2918 15.9449 37.1213C16.5714 36.9768 17.1722 36.7377 17.7267 36.4122C18.2192 36.1648 18.6627 35.8301 19.0358 35.4243C19.4738 34.9021 19.7701 34.276 19.8964 33.6061V31.5455C19.5998 32.314 19.1066 32.9912 18.4661 33.5092Z" fill="url(#paint12_linear_20_115)"/>
<path d="M7.00602 23.0732C6.73453 23.5023 6.53016 23.9703 6.39996 24.4611C6.27555 24.9994 6.21855 25.5511 6.23026 26.1035C6.25945 26.7194 6.36116 27.3297 6.53329 27.9217C6.72792 28.5734 7.00275 29.1984 7.35147 29.7823C7.74845 30.4118 8.2117 30.9969 8.73329 31.5278L8.76965 31.5702C9.27165 32.0621 9.83127 32.4914 10.4363 32.849C11.0196 33.1959 11.6449 33.4668 12.2969 33.655C12.8886 33.83 13.4989 33.9337 14.1151 33.9641C14.6692 33.9694 15.2222 33.9125 15.7636 33.7944C16.253 33.6603 16.7205 33.4562 17.1515 33.1884C17.5264 32.9462 17.8583 32.643 18.1333 32.2914C18.6195 31.641 18.9002 30.8601 18.9394 30.049C18.9669 29.6447 18.9547 29.2387 18.903 28.8369C18.6961 29.4776 18.324 30.0524 17.8242 30.5035C17.2496 30.9758 16.559 31.2855 15.8242 31.4005C15.6242 31.4308 15.4181 31.4551 15.2181 31.4672C15.0181 31.4793 14.7939 31.4672 14.5757 31.4672C14.3575 31.4672 14.1272 31.4187 13.903 31.3763C13.6787 31.3338 13.4606 31.2611 13.2303 31.1884C12.2673 30.8651 11.392 30.3238 10.6727 29.6066C9.95951 28.8841 9.41878 28.0098 9.09086 27.049C9.01814 26.8247 8.95753 26.6005 8.90299 26.3763C8.86316 26.1536 8.83484 25.9291 8.81814 25.7035C8.81814 25.4854 8.81814 25.2732 8.81814 25.0611C8.83019 24.8578 8.85448 24.6554 8.89086 24.4551C9.00056 23.7187 9.31089 23.0267 9.78784 22.455C10.2246 21.9488 10.7868 21.5663 11.4181 21.346C11.016 21.2973 10.6103 21.2852 10.206 21.3096C9.39446 21.3465 8.61292 21.6274 7.96359 22.1156C7.59152 22.3772 7.26754 22.7012 7.00602 23.0732Z" fill="url(#paint13_linear_20_115)"/>
<path d="M10.236 23.2061C10.0069 23.5191 9.83458 23.8698 9.72693 24.2425C9.61623 24.6162 9.5611 25.0042 9.5633 25.394C9.56426 25.8198 9.62132 26.2437 9.73299 26.6546C9.99742 27.5678 10.4848 28.4008 11.1512 29.0788C11.8275 29.7461 12.6613 30.2319 13.5754 30.491C13.9836 30.606 14.4059 30.6631 14.83 30.6606C15.2199 30.6658 15.6084 30.6106 15.9815 30.497C16.3555 30.3881 16.708 30.2159 17.0239 29.9879C17.3177 29.7703 17.5719 29.5038 17.7754 29.2C18.1544 28.6356 18.3952 27.9899 18.4784 27.3152C18.5273 26.9758 18.5556 26.6338 18.5633 26.291C18.364 26.7521 18.0685 27.1654 17.6966 27.5031C17.3051 27.8361 16.8362 28.0653 16.333 28.1697C15.7481 28.2691 15.1478 28.2269 14.5826 28.0467C14.0173 27.8665 13.5034 27.5536 13.0838 27.1341C12.6643 26.7145 12.3513 26.2006 12.1711 25.6353C11.991 25.07 11.9488 24.4698 12.0481 23.8849C12.1538 23.3821 12.3829 22.9135 12.7148 22.5213C13.0517 22.15 13.4653 21.8563 13.9269 21.6606C13.5841 21.6632 13.2419 21.6896 12.9027 21.7394C12.2268 21.8255 11.5797 22.066 11.0118 22.4425C10.7103 22.6494 10.4477 22.9079 10.236 23.2061Z" fill="url(#paint14_linear_20_115)"/>
<path d="M12.9207 23.5882C12.7242 24.0916 12.6799 24.6417 12.7934 25.17C12.8586 25.4425 12.9541 25.7068 13.0783 25.9579C13.2314 26.2065 13.408 26.4399 13.6055 26.6549V26.6852C13.8029 26.8644 14.0182 27.0228 14.248 27.1579C14.4989 27.2839 14.7632 27.3815 15.0359 27.4488C15.5906 27.5689 16.1693 27.5084 16.6872 27.2761C17.2052 27.0438 17.6353 26.652 17.9146 26.1579C18.1913 25.671 18.3955 25.1462 18.5207 24.6003C18.5874 24.3216 18.648 24.0428 18.6904 23.7822C18.5342 24.0914 18.3296 24.3738 18.0843 24.6185C17.8457 24.8408 17.5627 25.0102 17.254 25.1155C16.9488 25.2081 16.6246 25.2187 16.314 25.1464C16.0034 25.074 15.7173 24.9213 15.4843 24.7034C15.2644 24.4705 15.1098 24.1836 15.0364 23.8717C14.963 23.5599 14.9732 23.2342 15.0662 22.9276C15.174 22.6219 15.3431 22.3414 15.5631 22.1034C15.8098 21.8578 16.0942 21.6532 16.4055 21.4973C16.1389 21.5458 15.8662 21.6003 15.5813 21.667C15.0365 21.7897 14.5135 21.994 14.0298 22.2731C13.5237 22.5755 13.1333 23.0384 12.9207 23.5882Z" fill="url(#paint15_linear_20_115)"/>
<defs>
<linearGradient id="paint0_linear_20_115" x1="19.8964" y1="11.8063" x2="36.957" y2="11.8063" gradientUnits="userSpaceOnUse">
<stop stop-color="#E53282"/>
<stop offset="1" stop-color="#851D7B"/>
</linearGradient>
<linearGradient id="paint1_linear_20_115" x1="20.8248" y1="13.049" x2="33.546" y2="13.049" gradientUnits="userSpaceOnUse">
<stop stop-color="#E53282"/>
<stop offset="1" stop-color="#851D7B"/>
</linearGradient>
<linearGradient id="paint2_linear_20_115" x1="21.2239" y1="14.503" x2="30.23" y2="14.503" gradientUnits="userSpaceOnUse">
<stop stop-color="#E53282"/>
<stop offset="1" stop-color="#851D7B"/>
</linearGradient>
<linearGradient id="paint3_linear_20_115" x1="21.048" y1="16.1822" x2="27.054" y2="16.1822" gradientUnits="userSpaceOnUse">
<stop stop-color="#E53282"/>
<stop offset="1" stop-color="#851D7B"/>
</linearGradient>
<linearGradient id="paint4_linear_20_115" x1="2.82973" y1="11.8065" x2="19.8964" y2="11.8065" gradientUnits="userSpaceOnUse">
<stop stop-color="#F08504"/>
<stop offset="1" stop-color="#E5322D"/>
</linearGradient>
<linearGradient id="paint5_linear_20_115" x1="6.24841" y1="13.0487" x2="18.9696" y2="13.0487" gradientUnits="userSpaceOnUse">
<stop stop-color="#F08504"/>
<stop offset="1" stop-color="#E5322D"/>
</linearGradient>
<linearGradient id="paint6_linear_20_115" x1="9.56309" y1="14.5032" x2="18.5692" y2="14.5032" gradientUnits="userSpaceOnUse">
<stop stop-color="#F08504"/>
<stop offset="1" stop-color="#E5322D"/>
</linearGradient>
<linearGradient id="paint7_linear_20_115" x1="12.733" y1="16.1824" x2="18.7451" y2="16.1824" gradientUnits="userSpaceOnUse">
<stop stop-color="#F08504"/>
<stop offset="1" stop-color="#E5322D"/>
</linearGradient>
<linearGradient id="paint8_linear_20_115" x1="20.9159" y1="34.6549" x2="35.0855" y2="21.4731" gradientUnits="userSpaceOnUse">
<stop stop-color="#97BE11"/>
<stop offset="1" stop-color="#258F2D"/>
</linearGradient>
<linearGradient id="paint9_linear_20_115" x1="17.4127" y1="30.8973" x2="31.5884" y2="17.7155" gradientUnits="userSpaceOnUse">
<stop stop-color="#97BE11"/>
<stop offset="1" stop-color="#258F2D"/>
</linearGradient>
<linearGradient id="paint10_linear_20_115" x1="22.461" y1="36.3216" x2="36.6367" y2="23.1398" gradientUnits="userSpaceOnUse">
<stop stop-color="#97BE11"/>
<stop offset="1" stop-color="#258F2D"/>
</linearGradient>
<linearGradient id="paint11_linear_20_115" x1="19.2239" y1="32.8369" x2="33.3936" y2="19.6611" gradientUnits="userSpaceOnUse">
<stop stop-color="#97BE11"/>
<stop offset="1" stop-color="#258F2D"/>
</linearGradient>
<linearGradient id="paint12_linear_20_115" x1="15.7873" y1="35.994" x2="5.01761" y2="23.2364" gradientUnits="userSpaceOnUse">
<stop stop-color="#3AB4E6"/>
<stop offset="1" stop-color="#004996"/>
</linearGradient>
<linearGradient id="paint13_linear_20_115" x1="17.4848" y1="34.5641" x2="6.70904" y2="21.8066" gradientUnits="userSpaceOnUse">
<stop stop-color="#3AB4E6"/>
<stop offset="1" stop-color="#004996"/>
</linearGradient>
<linearGradient id="paint14_linear_20_115" x1="19.333" y1="33" x2="8.56329" y2="20.2425" gradientUnits="userSpaceOnUse">
<stop stop-color="#3AB4E6"/>
<stop offset="1" stop-color="#004996"/>
</linearGradient>
<linearGradient id="paint15_linear_20_115" x1="21.3328" y1="31.3155" x2="10.5571" y2="18.5579" gradientUnits="userSpaceOnUse">
<stop stop-color="#3AB4E6"/>
<stop offset="1" stop-color="#004996"/>
</linearGradient>
</defs>
</svg>
