<svg width="24" height="25" viewBox="0 0 24 25" fill="none" xmlns="http://www.w3.org/2000/svg">
<path d="M19.9702 11.0633C19.9702 17.2623 12 22.5758 12 22.5758C12 22.5758 4.02975 17.2623 4.02975 11.0633C4.02975 8.94942 4.86947 6.92216 6.36418 5.42745C7.85889 3.93274 9.88616 3.09302 12 3.09302C14.1138 3.09302 16.1411 3.93274 17.6358 5.42745C19.1305 6.92216 19.9702 8.94942 19.9702 11.0633Z" stroke="#309689" stroke-width="2" stroke-linecap="round" stroke-linejoin="round"/>
<path d="M12 13.72C13.4673 13.72 14.6568 12.5305 14.6568 11.0632C14.6568 9.59596 13.4673 8.40649 12 8.40649C10.5327 8.40649 9.34326 9.59596 9.34326 11.0632C9.34326 12.5305 10.5327 13.72 12 13.72Z" stroke="#309689" stroke-width="2" stroke-linecap="round" stroke-linejoin="round"/>
</svg>
