<svg width="80" height="80" viewBox="0 0 80 80" fill="none" xmlns="http://www.w3.org/2000/svg">
<path d="M70 33.332C70 56.6654 40 76.6654 40 76.6654C40 76.6654 10 56.6654 10 33.332C10 25.3755 13.1607 17.7449 18.7868 12.1188C24.4129 6.49274 32.0435 3.33203 40 3.33203C47.9565 3.33203 55.5871 6.49274 61.2132 12.1188C66.8393 17.7449 70 25.3755 70 33.332Z" fill="#309689"/>
<path d="M40 43.332C45.5228 43.332 50 38.8549 50 33.332C50 27.8092 45.5228 23.332 40 23.332C34.4772 23.332 30 27.8092 30 33.332C30 38.8549 34.4772 43.332 40 43.332Z" fill="white"/>
</svg>
