<svg width="40" height="41" viewBox="0 0 40 41" fill="none" xmlns="http://www.w3.org/2000/svg">
<path d="M35 17.4998C35 29.1664 20 39.1664 20 39.1664C20 39.1664 5 29.1664 5 17.4998C5 13.5215 6.58035 9.7062 9.3934 6.89315C12.2064 4.08011 16.0218 2.49976 20 2.49976C23.9782 2.49976 27.7936 4.08011 30.6066 6.89315C33.4196 9.7062 35 13.5215 35 17.4998Z" fill="#309689"/>
<path d="M20 22.4998C22.7614 22.4998 25 20.2612 25 17.4998C25 14.7383 22.7614 12.4998 20 12.4998C17.2386 12.4998 15 14.7383 15 17.4998C15 20.2612 17.2386 22.4998 20 22.4998Z" fill="white"/>
</svg>
