<svg width="28" height="28" viewBox="0 0 28 28" fill="none" xmlns="http://www.w3.org/2000/svg">
<g clip-path="url(#clip0_2_2131)">
<path d="M25.6674 19.74V23.24C25.6687 23.5649 25.6022 23.8866 25.472 24.1843C25.3418 24.482 25.1509 24.7492 24.9115 24.9689C24.6721 25.1885 24.3894 25.3558 24.0816 25.4599C23.7738 25.5639 23.4477 25.6026 23.1241 25.5734C19.534 25.1833 16.0856 23.9565 13.0557 21.9917C10.2369 20.2005 7.84696 17.8106 6.05574 14.9917C4.08404 11.9481 2.85702 8.48286 2.47407 4.8767C2.44491 4.55408 2.48326 4.22892 2.58665 3.92193C2.69005 3.61494 2.85624 3.33284 3.07463 3.09359C3.29302 2.85434 3.55884 2.66319 3.85516 2.53231C4.15148 2.40142 4.4718 2.33367 4.79574 2.33337H8.29574C8.86193 2.32779 9.41083 2.52829 9.84012 2.89749C10.2694 3.26668 10.5498 3.77939 10.6291 4.34003C10.7768 5.46011 11.0508 6.55988 11.4457 7.61836C11.6027 8.03594 11.6367 8.48977 11.5436 8.92606C11.4506 9.36235 11.2344 9.76283 10.9207 10.08L9.43907 11.5617C11.0999 14.4825 13.5183 16.9009 16.4391 18.5617L17.9207 17.08C18.2379 16.7664 18.6384 16.5502 19.0747 16.4571C19.511 16.3641 19.9648 16.3981 20.3824 16.555C21.4409 16.95 22.5407 17.224 23.6607 17.3717C24.2275 17.4516 24.745 17.7371 25.115 18.1738C25.485 18.6104 25.6816 19.1679 25.6674 19.74Z" stroke="#309689" stroke-width="3" stroke-linecap="round" stroke-linejoin="round"/>
</g>
<defs>
<clipPath id="clip0_2_2131">
<rect width="28" height="28" fill="white"/>
</clipPath>
</defs>
</svg>
