<svg width="40" height="31" viewBox="0 0 40 31" fill="none" xmlns="http://www.w3.org/2000/svg">
<path d="M36.715 0.833496L40 3.62853C37.8959 5.40907 36.1782 7.12749 34.847 8.78381C33.5588 10.3987 32.7429 11.6202 32.3994 12.4484C32.0558 13.2766 31.7338 14.2703 31.4332 15.4298L31.6908 15.8024C34.5679 15.8024 36.672 16.4029 38.0032 17.6037C39.3344 18.8045 40 20.6679 40 23.1937C40 25.1399 39.27 26.8997 37.81 28.4732C36.3929 30.0467 34.6108 30.8335 32.4638 30.8335C30.0161 30.8335 27.9764 30.171 26.3446 28.8459C24.7128 27.5209 23.8969 25.3884 23.8969 22.4484C23.8969 18.5561 25.1422 14.5395 27.6328 10.3987C30.1664 6.21652 33.1938 3.02811 36.715 0.833496ZM12.818 0.833496L16.1031 3.62853C13.9989 5.40907 12.3027 7.10679 11.0145 8.72169C9.72625 10.3366 8.88889 11.5788 8.50241 12.4484C8.15888 13.318 7.83682 14.3118 7.53623 15.4298L7.79388 15.8024C10.671 15.8024 12.7751 16.4029 14.1063 17.6037C15.4375 18.8045 16.1031 20.6679 16.1031 23.1937C16.1031 25.1399 15.3731 26.8997 13.913 28.4732C12.496 30.0467 10.7139 30.8335 8.56683 30.8335C6.11916 30.8335 4.07944 30.171 2.44766 28.8459C0.815888 27.5209 0 25.3884 0 22.4484C0 18.5561 1.2453 14.5395 3.73591 10.3987C6.26946 6.21652 9.29683 3.02811 12.818 0.833496Z" fill="#309689"/>
</svg>
