<svg width="20" height="21" viewBox="0 0 20 21" fill="none" xmlns="http://www.w3.org/2000/svg">
<path d="M16.364 13.4698C15.3837 12.4895 14.217 11.7639 12.9439 11.3246C14.3074 10.3855 15.2031 8.81394 15.2031 7.03687C15.2031 4.16787 12.869 1.83374 10 1.83374C7.131 1.83374 4.79688 4.16787 4.79688 7.03687C4.79688 8.81394 5.69262 10.3855 7.05609 11.3246C5.78308 11.7639 4.61631 12.4895 3.63605 13.4698C1.93618 15.1697 1 17.4298 1 19.8337H2.40625C2.40625 15.6465 5.81279 12.24 10 12.24C14.1872 12.24 17.5938 15.6465 17.5938 19.8337H19C19 17.4298 18.0638 15.1697 16.364 13.4698ZM10 10.8337C7.90641 10.8337 6.20312 9.13049 6.20312 7.03687C6.20312 4.94324 7.90641 3.23999 10 3.23999C12.0936 3.23999 13.7969 4.94324 13.7969 7.03687C13.7969 9.13049 12.0936 10.8337 10 10.8337Z" fill="#6C757D"/>
</svg>
